<svg width="1280" height="720" viewBox="0 0 1280 720" fill="none" xmlns="http://www.w3.org/2000/svg">
<path d="M24 1V721" stroke="white" stroke-opacity="0.1"/>
<path d="M49 1V721" stroke="white" stroke-opacity="0.1"/>
<path d="M72 1V721" stroke="white" stroke-opacity="0.1"/>
<path d="M96 1V721" stroke="white" stroke-opacity="0.1"/>
<path d="M120 1V721" stroke="white" stroke-opacity="0.1"/>
<path d="M145 1V721" stroke="white" stroke-opacity="0.1"/>
<path d="M168 1V721" stroke="white" stroke-opacity="0.1"/>
<path d="M192 1V721" stroke="white" stroke-opacity="0.1"/>
<path d="M216 1V721" stroke="white" stroke-opacity="0.1"/>
<path d="M241 1V721" stroke="white" stroke-opacity="0.1"/>
<path d="M264 1V721" stroke="white" stroke-opacity="0.1"/>
<path d="M288 1V721" stroke="white" stroke-opacity="0.1"/>
<path d="M312 1V721" stroke="white" stroke-opacity="0.1"/>
<path d="M337 1V721" stroke="white" stroke-opacity="0.1"/>
<path d="M360 1V721" stroke="white" stroke-opacity="0.1"/>
<path d="M384 1V721" stroke="white" stroke-opacity="0.1"/>
<path d="M408 0V720" stroke="white" stroke-opacity="0.1"/>
<path d="M433 0V720" stroke="white" stroke-opacity="0.1"/>
<path d="M456 0V720" stroke="white" stroke-opacity="0.1"/>
<path d="M480 0V720" stroke="white" stroke-opacity="0.1"/>
<path d="M504 0V720" stroke="white" stroke-opacity="0.1"/>
<path d="M529 0V720" stroke="white" stroke-opacity="0.1"/>
<path d="M552 0V720" stroke="white" stroke-opacity="0.1"/>
<path d="M576 0V720" stroke="white" stroke-opacity="0.1"/>
<path d="M600 0V720" stroke="white" stroke-opacity="0.1"/>
<path d="M625 0V720" stroke="white" stroke-opacity="0.1"/>
<path d="M648 0V720" stroke="white" stroke-opacity="0.1"/>
<path d="M672 0V720" stroke="white" stroke-opacity="0.1"/>
<path d="M696 0V720" stroke="white" stroke-opacity="0.1"/>
<path d="M721 0V720" stroke="white" stroke-opacity="0.1"/>
<path d="M744 0V720" stroke="white" stroke-opacity="0.1"/>
<path d="M768 0V720" stroke="white" stroke-opacity="0.1"/>
<path d="M792 1V721" stroke="white" stroke-opacity="0.1"/>
<path d="M817 1V721" stroke="white" stroke-opacity="0.1"/>
<path d="M840 1V721" stroke="white" stroke-opacity="0.1"/>
<path d="M864 1V721" stroke="white" stroke-opacity="0.1"/>
<path d="M888 1V721" stroke="white" stroke-opacity="0.1"/>
<path d="M913 1V721" stroke="white" stroke-opacity="0.1"/>
<path d="M936 1V721" stroke="white" stroke-opacity="0.1"/>
<path d="M960 1V721" stroke="white" stroke-opacity="0.1"/>
<path d="M984 1V721" stroke="white" stroke-opacity="0.1"/>
<path d="M1009 1V721" stroke="white" stroke-opacity="0.1"/>
<path d="M1032 1V721" stroke="white" stroke-opacity="0.1"/>
<path d="M1056 1V721" stroke="white" stroke-opacity="0.1"/>
<path d="M1080 1V721" stroke="white" stroke-opacity="0.1"/>
<path d="M1105 1V721" stroke="white" stroke-opacity="0.1"/>
<path d="M1128 1V721" stroke="white" stroke-opacity="0.1"/>
<path d="M1152 1V721" stroke="white" stroke-opacity="0.1"/>
<path d="M1176 1V721" stroke="white" stroke-opacity="0.1"/>
<path d="M1201 1V721" stroke="white" stroke-opacity="0.1"/>
<path d="M1224 1V721" stroke="white" stroke-opacity="0.1"/>
<path d="M1272 1V721" stroke="white" stroke-opacity="0.1"/>
<path d="M1248 1V721" stroke="white" stroke-opacity="0.1"/>
<path d="M0 25H1280" stroke="white" stroke-opacity="0.1"/>
<path d="M0 49H1280" stroke="white" stroke-opacity="0.1"/>
<path d="M0 73H1280" stroke="white" stroke-opacity="0.1"/>
<path d="M0 97H1280" stroke="white" stroke-opacity="0.1"/>
<path d="M0 121H1280" stroke="white" stroke-opacity="0.1"/>
<path d="M0 145H1280" stroke="white" stroke-opacity="0.1"/>
<path d="M0 169H1280" stroke="white" stroke-opacity="0.1"/>
<path d="M0 193H1280" stroke="white" stroke-opacity="0.1"/>
<path d="M0 217H1280" stroke="white" stroke-opacity="0.1"/>
<path d="M0 241H1280" stroke="white" stroke-opacity="0.1"/>
<path d="M0 265H1280" stroke="white" stroke-opacity="0.1"/>
<path d="M0 289H1280" stroke="white" stroke-opacity="0.1"/>
<path d="M0 313H1280" stroke="white" stroke-opacity="0.1"/>
<path d="M0 337H1280" stroke="white" stroke-opacity="0.1"/>
<path d="M0 361H1280" stroke="white" stroke-opacity="0.1"/>
<path d="M0 385H1280" stroke="white" stroke-opacity="0.1"/>
<path d="M0 409H1280" stroke="white" stroke-opacity="0.1"/>
<path d="M0 433H1280" stroke="white" stroke-opacity="0.1"/>
<path d="M0 457H1280" stroke="white" stroke-opacity="0.1"/>
<path d="M0 481H1280" stroke="white" stroke-opacity="0.1"/>
<path d="M0 505H1280" stroke="white" stroke-opacity="0.1"/>
<path d="M0 529H1280" stroke="white" stroke-opacity="0.1"/>
<path d="M0 553H1280" stroke="white" stroke-opacity="0.1"/>
<path d="M0 577H1280" stroke="white" stroke-opacity="0.1"/>
<path d="M0 601H1280" stroke="white" stroke-opacity="0.1"/>
<path d="M0 625H1280" stroke="white" stroke-opacity="0.1"/>
<path d="M0 649H1280" stroke="white" stroke-opacity="0.1"/>
<path d="M0 673H1280" stroke="white" stroke-opacity="0.1"/>
<path d="M0 697H1280" stroke="white" stroke-opacity="0.1"/>
</svg>
